<svg xmlns="http://www.w3.org/2000/svg" xmlns:xlink="http://www.w3.org/1999/xlink" viewBox="0,0,256,256" width="50px" height="50px" fill-rule="nonzero"><g fill="#6a7282" fill-rule="nonzero" stroke="none" stroke-width="1" stroke-linecap="butt" stroke-linejoin="miter" stroke-miterlimit="10" stroke-dasharray="" stroke-dashoffset="0" font-family="none" font-weight="none" font-size="none" text-anchor="none" style="mix-blend-mode: normal"><g transform="scale(5.12,5.12)"><path d="M34,0c-8.82031,0 -16,7.17969 -16,16c0,1.95703 0.35547,3.82813 1,5.5625l-19,19.03125v6l18.5625,-18.59375l1.4375,1.4375l-19,18.96875l1.59375,1.59375h6.8125l3.59375,-3.59375v-2.40625h2.40625l3.59375,-3.59375v-1.40625h1.40625l2.59375,-2.59375v-1.40625h1.40625l4.03125,-4.03125c1.73828,0.64844 3.60156,1.03125 5.5625,1.03125c8.82031,0 16,-7.17969 16,-16c0,-8.82031 -7.17969,-16 -16,-16zM34,5c2.9375,0 5.70313,1.14063 7.78125,3.21875c2.07813,2.07813 3.21875,4.84375 3.21875,7.78125c0,2.9375 -1.14062,5.70313 -3.21875,7.78125l-0.71875,0.71875l-15.5625,-15.5625l0.71875,-0.71875c2.07813,-2.07812 4.84375,-3.21875 7.78125,-3.21875z"></path></g></g></svg>